<svg viewBox="0 0 100 100" xmlns="http://www.w3.org/2000/svg">
<defs><mask id="mk0" maskUnits="userSpaceOnUse"><rect width="100" height="100" fill="black"></rect><path d="M10.00,50 a40,40 0 1,0 80.00,0 a40,40 0 1,0 -80.00,0 Z M50.00,33.00 Q56.95,35.57 63.29,39.40 Q65.61,46.44 66.57,53.78 Q62.52,59.99 57.38,65.32 Q50.00,66.02 42.62,65.32 Q37.48,59.99 33.43,53.78 Q34.39,46.44 36.71,39.40 Q43.05,35.57 50.00,33.00 Z" fill="white" fill-rule="evenodd"></path><line x1="63.29" y1="39.40" x2="89.94" y2="52.23" stroke="black" stroke-width="1.3" stroke-linecap="butt"></line><line x1="66.57" y1="53.78" x2="73.15" y2="82.62" stroke="black" stroke-width="1.3" stroke-linecap="butt"></line><line x1="57.38" y1="65.32" x2="38.94" y2="88.44" stroke="black" stroke-width="1.3" stroke-linecap="butt"></line><line x1="42.62" y1="65.32" x2="13.05" y2="65.32" stroke="black" stroke-width="1.3" stroke-linecap="butt"></line><line x1="33.43" y1="53.78" x2="14.99" y2="30.66" stroke="black" stroke-width="1.3" stroke-linecap="butt"></line><line x1="36.71" y1="39.40" x2="43.29" y2="10.57" stroke="black" stroke-width="1.3" stroke-linecap="butt"></line><line x1="50.00" y1="33.00" x2="76.65" y2="20.17" stroke="black" stroke-width="1.3" stroke-linecap="butt"></line></mask></defs>
<rect width="100" height="100" fill="#1D1D1F" mask="url(#mk0)"></rect>
</svg>