<svg xmlns="http://www.w3.org/2000/svg" width="984" height="260" viewBox="0 0 984 260"><g><svg xmlns="http://www.w3.org/2000/svg" width="260" height="260" viewBox="0 0 260 260"><defs><linearGradient id="bg" x1="0" y1="0" x2="0" y2="1"><stop offset="0" stop-color="#222a3a"></stop><stop offset="1" stop-color="#090b12"></stop></linearGradient><linearGradient id="sh" x1="0" y1="0" x2="0" y2="1"><stop offset="0" stop-color="#fff" stop-opacity="0.30"></stop><stop offset="0.5" stop-color="#fff" stop-opacity="0.04"></stop><stop offset="1" stop-color="#fff" stop-opacity="0"></stop></linearGradient><linearGradient id="ed" x1="0" y1="0" x2="0" y2="1"><stop offset="0" stop-color="#fff" stop-opacity="0.55"></stop><stop offset="1" stop-color="#000" stop-opacity="0.20"></stop></linearGradient></defs><path d="M258.700 130.000L258.675 162.241L258.598 172.534L258.471 180.007L258.293 186.080L258.064 191.279L257.783 195.867L257.451 199.996L257.067 203.764L256.631 207.235L256.142 210.458L255.601 213.469L255.006 216.293L254.357 218.953L253.653 221.464L252.894 223.842L252.079 226.097L251.207 228.238L250.277 230.274L249.288 232.211L248.239 234.056L247.129 235.812L245.955 237.486L244.717 239.079L243.413 240.596L242.040 242.040L240.596 243.413L239.079 244.717L237.486 245.955L235.812 247.129L234.056 248.239L232.211 249.288L230.274 250.277L228.238 251.207L226.097 252.079L223.842 252.894L221.464 253.653L218.953 254.357L216.293 255.006L213.469 255.601L210.458 256.142L207.235 256.631L203.764 257.067L199.996 257.451L195.867 257.783L191.279 258.064L186.080 258.293L180.007 258.471L172.534 258.598L162.241 258.675L130.000 258.700L97.759 258.675L87.466 258.598L79.993 258.471L73.920 258.293L68.721 258.064L64.133 257.783L60.004 257.451L56.236 257.067L52.765 256.631L49.542 256.142L46.531 255.601L43.707 255.006L41.047 254.357L38.536 253.653L36.158 252.894L33.903 252.079L31.762 251.207L29.726 250.277L27.789 249.288L25.944 248.239L24.188 247.129L22.514 245.955L20.921 244.717L19.404 243.413L17.960 242.040L16.587 240.596L15.283 239.079L14.045 237.486L12.871 235.812L11.761 234.056L10.712 232.211L9.723 230.274L8.793 228.238L7.921 226.097L7.106 223.842L6.347 221.464L5.643 218.953L4.994 216.293L4.399 213.469L3.858 210.458L3.369 207.235L2.933 203.764L2.549 199.996L2.217 195.867L1.936 191.279L1.707 186.080L1.529 180.007L1.402 172.534L1.325 162.241L1.300 130.000L1.325 97.759L1.402 87.466L1.529 79.993L1.707 73.920L1.936 68.721L2.217 64.133L2.549 60.004L2.933 56.236L3.369 52.765L3.858 49.542L4.399 46.531L4.994 43.707L5.643 41.047L6.347 38.536L7.106 36.158L7.921 33.903L8.793 31.762L9.723 29.726L10.712 27.789L11.761 25.944L12.871 24.188L14.045 22.514L15.283 20.921L16.587 19.404L17.960 17.960L19.404 16.587L20.921 15.283L22.514 14.045L24.188 12.871L25.944 11.761L27.789 10.712L29.726 9.723L31.762 8.793L33.903 7.921L36.158 7.106L38.536 6.347L41.047 5.643L43.707 4.994L46.531 4.399L49.542 3.858L52.765 3.369L56.236 2.933L60.004 2.549L64.133 2.217L68.721 1.936L73.920 1.707L79.993 1.529L87.466 1.402L97.759 1.325L130.000 1.300L162.241 1.325L172.534 1.402L180.007 1.529L186.080 1.707L191.279 1.936L195.867 2.217L199.996 2.549L203.764 2.933L207.235 3.369L210.458 3.858L213.469 4.399L216.293 4.994L218.953 5.643L221.464 6.347L223.842 7.106L226.097 7.921L228.238 8.793L230.274 9.723L232.211 10.712L234.056 11.761L235.812 12.871L237.486 14.045L239.079 15.283L240.596 16.587L242.040 17.960L243.413 19.404L244.717 20.921L245.955 22.514L247.129 24.188L248.239 25.944L249.288 27.789L250.277 29.726L251.207 31.762L252.079 33.903L252.894 36.158L253.653 38.536L254.357 41.047L255.006 43.707L255.601 46.531L256.142 49.542L256.631 52.765L257.067 56.236L257.451 60.004L257.783 64.133L258.064 68.721L258.293 73.920L258.471 79.993L258.598 87.466L258.675 97.759L258.700 130.000Z" fill="url(#bg)"></path><path d="M258.700 130.000L258.675 162.241L258.598 172.534L258.471 180.007L258.293 186.080L258.064 191.279L257.783 195.867L257.451 199.996L257.067 203.764L256.631 207.235L256.142 210.458L255.601 213.469L255.006 216.293L254.357 218.953L253.653 221.464L252.894 223.842L252.079 226.097L251.207 228.238L250.277 230.274L249.288 232.211L248.239 234.056L247.129 235.812L245.955 237.486L244.717 239.079L243.413 240.596L242.040 242.040L240.596 243.413L239.079 244.717L237.486 245.955L235.812 247.129L234.056 248.239L232.211 249.288L230.274 250.277L228.238 251.207L226.097 252.079L223.842 252.894L221.464 253.653L218.953 254.357L216.293 255.006L213.469 255.601L210.458 256.142L207.235 256.631L203.764 257.067L199.996 257.451L195.867 257.783L191.279 258.064L186.080 258.293L180.007 258.471L172.534 258.598L162.241 258.675L130.000 258.700L97.759 258.675L87.466 258.598L79.993 258.471L73.920 258.293L68.721 258.064L64.133 257.783L60.004 257.451L56.236 257.067L52.765 256.631L49.542 256.142L46.531 255.601L43.707 255.006L41.047 254.357L38.536 253.653L36.158 252.894L33.903 252.079L31.762 251.207L29.726 250.277L27.789 249.288L25.944 248.239L24.188 247.129L22.514 245.955L20.921 244.717L19.404 243.413L17.960 242.040L16.587 240.596L15.283 239.079L14.045 237.486L12.871 235.812L11.761 234.056L10.712 232.211L9.723 230.274L8.793 228.238L7.921 226.097L7.106 223.842L6.347 221.464L5.643 218.953L4.994 216.293L4.399 213.469L3.858 210.458L3.369 207.235L2.933 203.764L2.549 199.996L2.217 195.867L1.936 191.279L1.707 186.080L1.529 180.007L1.402 172.534L1.325 162.241L1.300 130.000L1.325 97.759L1.402 87.466L1.529 79.993L1.707 73.920L1.936 68.721L2.217 64.133L2.549 60.004L2.933 56.236L3.369 52.765L3.858 49.542L4.399 46.531L4.994 43.707L5.643 41.047L6.347 38.536L7.106 36.158L7.921 33.903L8.793 31.762L9.723 29.726L10.712 27.789L11.761 25.944L12.871 24.188L14.045 22.514L15.283 20.921L16.587 19.404L17.960 17.960L19.404 16.587L20.921 15.283L22.514 14.045L24.188 12.871L25.944 11.761L27.789 10.712L29.726 9.723L31.762 8.793L33.903 7.921L36.158 7.106L38.536 6.347L41.047 5.643L43.707 4.994L46.531 4.399L49.542 3.858L52.765 3.369L56.236 2.933L60.004 2.549L64.133 2.217L68.721 1.936L73.920 1.707L79.993 1.529L87.466 1.402L97.759 1.325L130.000 1.300L162.241 1.325L172.534 1.402L180.007 1.529L186.080 1.707L191.279 1.936L195.867 2.217L199.996 2.549L203.764 2.933L207.235 3.369L210.458 3.858L213.469 4.399L216.293 4.994L218.953 5.643L221.464 6.347L223.842 7.106L226.097 7.921L228.238 8.793L230.274 9.723L232.211 10.712L234.056 11.761L235.812 12.871L237.486 14.045L239.079 15.283L240.596 16.587L242.040 17.960L243.413 19.404L244.717 20.921L245.955 22.514L247.129 24.188L248.239 25.944L249.288 27.789L250.277 29.726L251.207 31.762L252.079 33.903L252.894 36.158L253.653 38.536L254.357 41.047L255.006 43.707L255.601 46.531L256.142 49.542L256.631 52.765L257.067 56.236L257.451 60.004L257.783 64.133L258.064 68.721L258.293 73.920L258.471 79.993L258.598 87.466L258.675 97.759L258.700 130.000Z" fill="url(#sh)"></path><g transform="scale(0.26)"><path d="M500.00 200.00 A 300.000 300.000 0 0 1 759.81 350.00 L 618.64 457.55 Z" fill="#ffffff" fill-opacity="0.8"></path><path d="M759.81 350.00 A 300.000 300.000 0 0 1 759.81 650.00 L 596.08 581.52 Z" fill="#ffffff" fill-opacity="0.96"></path><path d="M759.81 650.00 A 300.000 300.000 0 0 1 500.00 800.00 L 477.44 623.96 Z" fill="#ffffff" fill-opacity="0.8"></path><path d="M500.00 800.00 A 300.000 300.000 0 0 1 240.19 650.00 L 381.36 542.45 Z" fill="#ffffff" fill-opacity="0.96"></path><path d="M240.19 650.00 A 300.000 300.000 0 0 1 240.19 350.00 L 403.92 418.48 Z" fill="#ffffff" fill-opacity="0.8"></path><path d="M240.19 350.00 A 300.000 300.000 0 0 1 500.00 200.00 L 522.56 376.04 Z" fill="#ffffff" fill-opacity="0.96"></path><line x1="500.00" y1="200.00" x2="522.56" y2="376.04" stroke="#ffffff" stroke-width="8.40" stroke-opacity=".32"></line><line x1="759.81" y1="350.00" x2="618.64" y2="457.55" stroke="#ffffff" stroke-width="8.40" stroke-opacity=".32"></line><line x1="759.81" y1="650.00" x2="596.08" y2="581.52" stroke="#ffffff" stroke-width="8.40" stroke-opacity=".32"></line><line x1="500.00" y1="800.00" x2="477.44" y2="623.96" stroke="#ffffff" stroke-width="8.40" stroke-opacity=".32"></line><line x1="240.19" y1="650.00" x2="381.36" y2="542.45" stroke="#ffffff" stroke-width="8.40" stroke-opacity=".32"></line><line x1="240.19" y1="350.00" x2="403.92" y2="418.48" stroke="#ffffff" stroke-width="8.40" stroke-opacity=".32"></line></g><path d="M258.700 130.000L258.675 162.241L258.598 172.534L258.471 180.007L258.293 186.080L258.064 191.279L257.783 195.867L257.451 199.996L257.067 203.764L256.631 207.235L256.142 210.458L255.601 213.469L255.006 216.293L254.357 218.953L253.653 221.464L252.894 223.842L252.079 226.097L251.207 228.238L250.277 230.274L249.288 232.211L248.239 234.056L247.129 235.812L245.955 237.486L244.717 239.079L243.413 240.596L242.040 242.040L240.596 243.413L239.079 244.717L237.486 245.955L235.812 247.129L234.056 248.239L232.211 249.288L230.274 250.277L228.238 251.207L226.097 252.079L223.842 252.894L221.464 253.653L218.953 254.357L216.293 255.006L213.469 255.601L210.458 256.142L207.235 256.631L203.764 257.067L199.996 257.451L195.867 257.783L191.279 258.064L186.080 258.293L180.007 258.471L172.534 258.598L162.241 258.675L130.000 258.700L97.759 258.675L87.466 258.598L79.993 258.471L73.920 258.293L68.721 258.064L64.133 257.783L60.004 257.451L56.236 257.067L52.765 256.631L49.542 256.142L46.531 255.601L43.707 255.006L41.047 254.357L38.536 253.653L36.158 252.894L33.903 252.079L31.762 251.207L29.726 250.277L27.789 249.288L25.944 248.239L24.188 247.129L22.514 245.955L20.921 244.717L19.404 243.413L17.960 242.040L16.587 240.596L15.283 239.079L14.045 237.486L12.871 235.812L11.761 234.056L10.712 232.211L9.723 230.274L8.793 228.238L7.921 226.097L7.106 223.842L6.347 221.464L5.643 218.953L4.994 216.293L4.399 213.469L3.858 210.458L3.369 207.235L2.933 203.764L2.549 199.996L2.217 195.867L1.936 191.279L1.707 186.080L1.529 180.007L1.402 172.534L1.325 162.241L1.300 130.000L1.325 97.759L1.402 87.466L1.529 79.993L1.707 73.920L1.936 68.721L2.217 64.133L2.549 60.004L2.933 56.236L3.369 52.765L3.858 49.542L4.399 46.531L4.994 43.707L5.643 41.047L6.347 38.536L7.106 36.158L7.921 33.903L8.793 31.762L9.723 29.726L10.712 27.789L11.761 25.944L12.871 24.188L14.045 22.514L15.283 20.921L16.587 19.404L17.960 17.960L19.404 16.587L20.921 15.283L22.514 14.045L24.188 12.871L25.944 11.761L27.789 10.712L29.726 9.723L31.762 8.793L33.903 7.921L36.158 7.106L38.536 6.347L41.047 5.643L43.707 4.994L46.531 4.399L49.542 3.858L52.765 3.369L56.236 2.933L60.004 2.549L64.133 2.217L68.721 1.936L73.920 1.707L79.993 1.529L87.466 1.402L97.759 1.325L130.000 1.300L162.241 1.325L172.534 1.402L180.007 1.529L186.080 1.707L191.279 1.936L195.867 2.217L199.996 2.549L203.764 2.933L207.235 3.369L210.458 3.858L213.469 4.399L216.293 4.994L218.953 5.643L221.464 6.347L223.842 7.106L226.097 7.921L228.238 8.793L230.274 9.723L232.211 10.712L234.056 11.761L235.812 12.871L237.486 14.045L239.079 15.283L240.596 16.587L242.040 17.960L243.413 19.404L244.717 20.921L245.955 22.514L247.129 24.188L248.239 25.944L249.288 27.789L250.277 29.726L251.207 31.762L252.079 33.903L252.894 36.158L253.653 38.536L254.357 41.047L255.006 43.707L255.601 46.531L256.142 49.542L256.631 52.765L257.067 56.236L257.451 60.004L257.783 64.133L258.064 68.721L258.293 73.920L258.471 79.993L258.598 87.466L258.675 97.759L258.700 130.000Z" fill="none" stroke="url(#ed)" stroke-width="1.82"></path></svg></g><text x="324" y="186" font-family="-apple-system,BlinkMacSystemFont,&#39;SF Pro Display&#39;,&#39;Helvetica Neue&#39;,Arial,sans-serif" font-size="160" font-weight="600" letter-spacing="-5" fill="#ffffff">Aperture</text></svg>