<svg xmlns="http://www.w3.org/2000/svg" width="1000" height="1000" viewBox="0 0 1000 1000"><defs><linearGradient id="lc" x1="0" y1="0" x2="0" y2="1"><stop offset="0" stop-color="#3a3d45"></stop><stop offset="1" stop-color="#0c0d11"></stop></linearGradient></defs><circle cx="500" cy="500" r="498" fill="url(#lc)"></circle><g><path d="M500.00 200.00 A 300.000 300.000 0 0 1 759.81 350.00 L 618.64 457.55 Z" fill="#ffffff" fill-opacity="0.8"></path><path d="M759.81 350.00 A 300.000 300.000 0 0 1 759.81 650.00 L 596.08 581.52 Z" fill="#ffffff" fill-opacity="0.96"></path><path d="M759.81 650.00 A 300.000 300.000 0 0 1 500.00 800.00 L 477.44 623.96 Z" fill="#ffffff" fill-opacity="0.8"></path><path d="M500.00 800.00 A 300.000 300.000 0 0 1 240.19 650.00 L 381.36 542.45 Z" fill="#ffffff" fill-opacity="0.96"></path><path d="M240.19 650.00 A 300.000 300.000 0 0 1 240.19 350.00 L 403.92 418.48 Z" fill="#ffffff" fill-opacity="0.8"></path><path d="M240.19 350.00 A 300.000 300.000 0 0 1 500.00 200.00 L 522.56 376.04 Z" fill="#ffffff" fill-opacity="0.96"></path><line x1="500.00" y1="200.00" x2="522.56" y2="376.04" stroke="#ffffff" stroke-width="8.40" stroke-opacity=".32"></line><line x1="759.81" y1="350.00" x2="618.64" y2="457.55" stroke="#ffffff" stroke-width="8.40" stroke-opacity=".32"></line><line x1="759.81" y1="650.00" x2="596.08" y2="581.52" stroke="#ffffff" stroke-width="8.40" stroke-opacity=".32"></line><line x1="500.00" y1="800.00" x2="477.44" y2="623.96" stroke="#ffffff" stroke-width="8.40" stroke-opacity=".32"></line><line x1="240.19" y1="650.00" x2="381.36" y2="542.45" stroke="#ffffff" stroke-width="8.40" stroke-opacity=".32"></line><line x1="240.19" y1="350.00" x2="403.92" y2="418.48" stroke="#ffffff" stroke-width="8.40" stroke-opacity=".32"></line></g></svg>