<svg xmlns="http://www.w3.org/2000/svg" width="1024" height="1024" viewBox="0 0 1024 1024"><defs><linearGradient id="bg" x1="0" y1="0" x2="0" y2="1"><stop offset="0" stop-color="#161719"></stop><stop offset="1" stop-color="#000000"></stop></linearGradient><linearGradient id="sh" x1="0" y1="0" x2="0" y2="1"><stop offset="0" stop-color="#fff" stop-opacity="0.18"></stop><stop offset="0.5" stop-color="#fff" stop-opacity="0.03"></stop><stop offset="1" stop-color="#fff" stop-opacity="0"></stop></linearGradient><linearGradient id="ed" x1="0" y1="0" x2="0" y2="1"><stop offset="0" stop-color="#fff" stop-opacity="0.35"></stop><stop offset="1" stop-color="#000" stop-opacity="0.30"></stop></linearGradient></defs><path d="M1018.880 512.000L1018.780 638.980L1018.480 679.519L1017.979 708.950L1017.277 732.867L1016.375 753.345L1015.269 771.415L1013.961 787.678L1012.449 802.515L1010.731 816.187L1008.807 828.882L1006.674 840.739L1004.330 851.862L1001.774 862.337L999.003 872.229L996.014 881.593L992.803 890.473L989.369 898.907L985.707 906.925L981.812 914.555L977.681 921.820L973.307 928.738L968.685 935.328L963.810 941.603L958.672 947.579L953.265 953.265L947.579 958.672L941.603 963.810L935.328 968.685L928.738 973.307L921.820 977.681L914.555 981.812L906.925 985.707L898.907 989.369L890.473 992.803L881.593 996.014L872.229 999.003L862.337 1001.774L851.862 1004.330L840.739 1006.674L828.882 1008.807L816.187 1010.731L802.515 1012.449L787.678 1013.961L771.415 1015.269L753.345 1016.375L732.867 1017.277L708.950 1017.979L679.519 1018.480L638.980 1018.780L512.000 1018.880L385.020 1018.780L344.481 1018.480L315.050 1017.979L291.133 1017.277L270.655 1016.375L252.585 1015.269L236.322 1013.961L221.485 1012.449L207.813 1010.731L195.118 1008.807L183.261 1006.674L172.138 1004.330L161.663 1001.774L151.771 999.003L142.407 996.014L133.527 992.803L125.093 989.369L117.075 985.707L109.445 981.812L102.180 977.681L95.262 973.307L88.672 968.685L82.397 963.810L76.421 958.672L70.735 953.265L65.328 947.579L60.190 941.603L55.315 935.328L50.693 928.738L46.319 921.820L42.188 914.555L38.293 906.925L34.631 898.907L31.197 890.473L27.986 881.593L24.997 872.229L22.226 862.337L19.670 851.862L17.326 840.739L15.193 828.882L13.269 816.187L11.551 802.515L10.039 787.678L8.731 771.415L7.625 753.345L6.723 732.867L6.021 708.950L5.520 679.519L5.220 638.980L5.120 512.000L5.220 385.020L5.520 344.481L6.021 315.050L6.723 291.133L7.625 270.655L8.731 252.585L10.039 236.322L11.551 221.485L13.269 207.813L15.193 195.118L17.326 183.261L19.670 172.138L22.226 161.663L24.997 151.771L27.986 142.407L31.197 133.527L34.631 125.093L38.293 117.075L42.188 109.445L46.319 102.180L50.693 95.262L55.315 88.672L60.190 82.397L65.328 76.421L70.735 70.735L76.421 65.328L82.397 60.190L88.672 55.315L95.262 50.693L102.180 46.319L109.445 42.188L117.075 38.293L125.093 34.631L133.527 31.197L142.407 27.986L151.771 24.997L161.663 22.226L172.138 19.670L183.261 17.326L195.118 15.193L207.813 13.269L221.485 11.551L236.322 10.039L252.585 8.731L270.655 7.625L291.133 6.723L315.050 6.021L344.481 5.520L385.020 5.220L512.000 5.120L638.980 5.220L679.519 5.520L708.950 6.021L732.867 6.723L753.345 7.625L771.415 8.731L787.678 10.039L802.515 11.551L816.187 13.269L828.882 15.193L840.739 17.326L851.862 19.670L862.337 22.226L872.229 24.997L881.593 27.986L890.473 31.197L898.907 34.631L906.925 38.293L914.555 42.188L921.820 46.319L928.738 50.693L935.328 55.315L941.603 60.190L947.579 65.328L953.265 70.735L958.672 76.421L963.810 82.397L968.685 88.672L973.307 95.262L977.681 102.180L981.812 109.445L985.707 117.075L989.369 125.093L992.803 133.527L996.014 142.407L999.003 151.771L1001.774 161.663L1004.330 172.138L1006.674 183.261L1008.807 195.118L1010.731 207.813L1012.449 221.485L1013.961 236.322L1015.269 252.585L1016.375 270.655L1017.277 291.133L1017.979 315.050L1018.480 344.481L1018.780 385.020L1018.880 512.000Z" fill="url(#bg)"></path><path d="M1018.880 512.000L1018.780 638.980L1018.480 679.519L1017.979 708.950L1017.277 732.867L1016.375 753.345L1015.269 771.415L1013.961 787.678L1012.449 802.515L1010.731 816.187L1008.807 828.882L1006.674 840.739L1004.330 851.862L1001.774 862.337L999.003 872.229L996.014 881.593L992.803 890.473L989.369 898.907L985.707 906.925L981.812 914.555L977.681 921.820L973.307 928.738L968.685 935.328L963.810 941.603L958.672 947.579L953.265 953.265L947.579 958.672L941.603 963.810L935.328 968.685L928.738 973.307L921.820 977.681L914.555 981.812L906.925 985.707L898.907 989.369L890.473 992.803L881.593 996.014L872.229 999.003L862.337 1001.774L851.862 1004.330L840.739 1006.674L828.882 1008.807L816.187 1010.731L802.515 1012.449L787.678 1013.961L771.415 1015.269L753.345 1016.375L732.867 1017.277L708.950 1017.979L679.519 1018.480L638.980 1018.780L512.000 1018.880L385.020 1018.780L344.481 1018.480L315.050 1017.979L291.133 1017.277L270.655 1016.375L252.585 1015.269L236.322 1013.961L221.485 1012.449L207.813 1010.731L195.118 1008.807L183.261 1006.674L172.138 1004.330L161.663 1001.774L151.771 999.003L142.407 996.014L133.527 992.803L125.093 989.369L117.075 985.707L109.445 981.812L102.180 977.681L95.262 973.307L88.672 968.685L82.397 963.810L76.421 958.672L70.735 953.265L65.328 947.579L60.190 941.603L55.315 935.328L50.693 928.738L46.319 921.820L42.188 914.555L38.293 906.925L34.631 898.907L31.197 890.473L27.986 881.593L24.997 872.229L22.226 862.337L19.670 851.862L17.326 840.739L15.193 828.882L13.269 816.187L11.551 802.515L10.039 787.678L8.731 771.415L7.625 753.345L6.723 732.867L6.021 708.950L5.520 679.519L5.220 638.980L5.120 512.000L5.220 385.020L5.520 344.481L6.021 315.050L6.723 291.133L7.625 270.655L8.731 252.585L10.039 236.322L11.551 221.485L13.269 207.813L15.193 195.118L17.326 183.261L19.670 172.138L22.226 161.663L24.997 151.771L27.986 142.407L31.197 133.527L34.631 125.093L38.293 117.075L42.188 109.445L46.319 102.180L50.693 95.262L55.315 88.672L60.190 82.397L65.328 76.421L70.735 70.735L76.421 65.328L82.397 60.190L88.672 55.315L95.262 50.693L102.180 46.319L109.445 42.188L117.075 38.293L125.093 34.631L133.527 31.197L142.407 27.986L151.771 24.997L161.663 22.226L172.138 19.670L183.261 17.326L195.118 15.193L207.813 13.269L221.485 11.551L236.322 10.039L252.585 8.731L270.655 7.625L291.133 6.723L315.050 6.021L344.481 5.520L385.020 5.220L512.000 5.120L638.980 5.220L679.519 5.520L708.950 6.021L732.867 6.723L753.345 7.625L771.415 8.731L787.678 10.039L802.515 11.551L816.187 13.269L828.882 15.193L840.739 17.326L851.862 19.670L862.337 22.226L872.229 24.997L881.593 27.986L890.473 31.197L898.907 34.631L906.925 38.293L914.555 42.188L921.820 46.319L928.738 50.693L935.328 55.315L941.603 60.190L947.579 65.328L953.265 70.735L958.672 76.421L963.810 82.397L968.685 88.672L973.307 95.262L977.681 102.180L981.812 109.445L985.707 117.075L989.369 125.093L992.803 133.527L996.014 142.407L999.003 151.771L1001.774 161.663L1004.330 172.138L1006.674 183.261L1008.807 195.118L1010.731 207.813L1012.449 221.485L1013.961 236.322L1015.269 252.585L1016.375 270.655L1017.277 291.133L1017.979 315.050L1018.480 344.481L1018.780 385.020L1018.880 512.000Z" fill="url(#sh)"></path><g transform="scale(1.024)"><path d="M500.00 200.00 A 300.000 300.000 0 0 1 759.81 350.00 L 618.64 457.55 Z" fill="#ffffff" fill-opacity="0.8"></path><path d="M759.81 350.00 A 300.000 300.000 0 0 1 759.81 650.00 L 596.08 581.52 Z" fill="#ffffff" fill-opacity="0.96"></path><path d="M759.81 650.00 A 300.000 300.000 0 0 1 500.00 800.00 L 477.44 623.96 Z" fill="#ffffff" fill-opacity="0.8"></path><path d="M500.00 800.00 A 300.000 300.000 0 0 1 240.19 650.00 L 381.36 542.45 Z" fill="#ffffff" fill-opacity="0.96"></path><path d="M240.19 650.00 A 300.000 300.000 0 0 1 240.19 350.00 L 403.92 418.48 Z" fill="#ffffff" fill-opacity="0.8"></path><path d="M240.19 350.00 A 300.000 300.000 0 0 1 500.00 200.00 L 522.56 376.04 Z" fill="#ffffff" fill-opacity="0.96"></path><line x1="500.00" y1="200.00" x2="522.56" y2="376.04" stroke="#ffffff" stroke-width="8.40" stroke-opacity=".32"></line><line x1="759.81" y1="350.00" x2="618.64" y2="457.55" stroke="#ffffff" stroke-width="8.40" stroke-opacity=".32"></line><line x1="759.81" y1="650.00" x2="596.08" y2="581.52" stroke="#ffffff" stroke-width="8.40" stroke-opacity=".32"></line><line x1="500.00" y1="800.00" x2="477.44" y2="623.96" stroke="#ffffff" stroke-width="8.40" stroke-opacity=".32"></line><line x1="240.19" y1="650.00" x2="381.36" y2="542.45" stroke="#ffffff" stroke-width="8.40" stroke-opacity=".32"></line><line x1="240.19" y1="350.00" x2="403.92" y2="418.48" stroke="#ffffff" stroke-width="8.40" stroke-opacity=".32"></line></g><path d="M1018.880 512.000L1018.780 638.980L1018.480 679.519L1017.979 708.950L1017.277 732.867L1016.375 753.345L1015.269 771.415L1013.961 787.678L1012.449 802.515L1010.731 816.187L1008.807 828.882L1006.674 840.739L1004.330 851.862L1001.774 862.337L999.003 872.229L996.014 881.593L992.803 890.473L989.369 898.907L985.707 906.925L981.812 914.555L977.681 921.820L973.307 928.738L968.685 935.328L963.810 941.603L958.672 947.579L953.265 953.265L947.579 958.672L941.603 963.810L935.328 968.685L928.738 973.307L921.820 977.681L914.555 981.812L906.925 985.707L898.907 989.369L890.473 992.803L881.593 996.014L872.229 999.003L862.337 1001.774L851.862 1004.330L840.739 1006.674L828.882 1008.807L816.187 1010.731L802.515 1012.449L787.678 1013.961L771.415 1015.269L753.345 1016.375L732.867 1017.277L708.950 1017.979L679.519 1018.480L638.980 1018.780L512.000 1018.880L385.020 1018.780L344.481 1018.480L315.050 1017.979L291.133 1017.277L270.655 1016.375L252.585 1015.269L236.322 1013.961L221.485 1012.449L207.813 1010.731L195.118 1008.807L183.261 1006.674L172.138 1004.330L161.663 1001.774L151.771 999.003L142.407 996.014L133.527 992.803L125.093 989.369L117.075 985.707L109.445 981.812L102.180 977.681L95.262 973.307L88.672 968.685L82.397 963.810L76.421 958.672L70.735 953.265L65.328 947.579L60.190 941.603L55.315 935.328L50.693 928.738L46.319 921.820L42.188 914.555L38.293 906.925L34.631 898.907L31.197 890.473L27.986 881.593L24.997 872.229L22.226 862.337L19.670 851.862L17.326 840.739L15.193 828.882L13.269 816.187L11.551 802.515L10.039 787.678L8.731 771.415L7.625 753.345L6.723 732.867L6.021 708.950L5.520 679.519L5.220 638.980L5.120 512.000L5.220 385.020L5.520 344.481L6.021 315.050L6.723 291.133L7.625 270.655L8.731 252.585L10.039 236.322L11.551 221.485L13.269 207.813L15.193 195.118L17.326 183.261L19.670 172.138L22.226 161.663L24.997 151.771L27.986 142.407L31.197 133.527L34.631 125.093L38.293 117.075L42.188 109.445L46.319 102.180L50.693 95.262L55.315 88.672L60.190 82.397L65.328 76.421L70.735 70.735L76.421 65.328L82.397 60.190L88.672 55.315L95.262 50.693L102.180 46.319L109.445 42.188L117.075 38.293L125.093 34.631L133.527 31.197L142.407 27.986L151.771 24.997L161.663 22.226L172.138 19.670L183.261 17.326L195.118 15.193L207.813 13.269L221.485 11.551L236.322 10.039L252.585 8.731L270.655 7.625L291.133 6.723L315.050 6.021L344.481 5.520L385.020 5.220L512.000 5.120L638.980 5.220L679.519 5.520L708.950 6.021L732.867 6.723L753.345 7.625L771.415 8.731L787.678 10.039L802.515 11.551L816.187 13.269L828.882 15.193L840.739 17.326L851.862 19.670L862.337 22.226L872.229 24.997L881.593 27.986L890.473 31.197L898.907 34.631L906.925 38.293L914.555 42.188L921.820 46.319L928.738 50.693L935.328 55.315L941.603 60.190L947.579 65.328L953.265 70.735L958.672 76.421L963.810 82.397L968.685 88.672L973.307 95.262L977.681 102.180L981.812 109.445L985.707 117.075L989.369 125.093L992.803 133.527L996.014 142.407L999.003 151.771L1001.774 161.663L1004.330 172.138L1006.674 183.261L1008.807 195.118L1010.731 207.813L1012.449 221.485L1013.961 236.322L1015.269 252.585L1016.375 270.655L1017.277 291.133L1017.979 315.050L1018.480 344.481L1018.780 385.020L1018.880 512.000Z" fill="none" stroke="url(#ed)" stroke-width="7.168"></path></svg>