<svg xmlns="http://www.w3.org/2000/svg" width="1000" height="1000" viewBox="0 0 1000 1000" style="color:#bcbec5"><path d="M500.00 140.00 A 360.00 360.00 0 0 1 811.77 320.00 L 642.36 449.06 Z" fill="none" fill-opacity="1" stroke="currentColor" stroke-width="27" stroke-linejoin="round" stroke-linecap="round"></path><path d="M811.77 320.00 A 360.00 360.00 0 0 1 811.77 680.00 L 615.29 597.82 Z" fill="none" fill-opacity="1" stroke="currentColor" stroke-width="27" stroke-linejoin="round" stroke-linecap="round"></path><path d="M811.77 680.00 A 360.00 360.00 0 0 1 500.00 860.00 L 472.93 648.76 Z" fill="none" fill-opacity="1" stroke="currentColor" stroke-width="27" stroke-linejoin="round" stroke-linecap="round"></path><path d="M500.00 860.00 A 360.00 360.00 0 0 1 188.23 680.00 L 357.64 550.94 Z" fill="none" fill-opacity="1" stroke="currentColor" stroke-width="27" stroke-linejoin="round" stroke-linecap="round"></path><path d="M188.23 680.00 A 360.00 360.00 0 0 1 188.23 320.00 L 384.71 402.18 Z" fill="none" fill-opacity="1" stroke="currentColor" stroke-width="27" stroke-linejoin="round" stroke-linecap="round"></path><path d="M188.23 320.00 A 360.00 360.00 0 0 1 500.00 140.00 L 527.07 351.24 Z" fill="none" fill-opacity="1" stroke="currentColor" stroke-width="27" stroke-linejoin="round" stroke-linecap="round"></path></svg>